<?xml version="1.0" encoding="UTF-8"?>
<svg version="1.1" xmlns="http://www.w3.org/2000/svg" width="1254" height="1254">
<path d="M0 0 C1.04478516 -0.00201416 2.08957031 -0.00402832 3.16601562 -0.00610352 C4.26880859 -0.00151123 5.37160156 0.00308105 6.5078125 0.0078125 C7.62865234 0.01047119 8.74949219 0.01312988 9.90429688 0.01586914 C32.64575456 0.14575456 32.64575456 0.14575456 34.6328125 2.1328125 C34.73092385 3.71203979 34.75913142 5.29565783 34.75979614 6.87792969 C34.76261597 7.90438599 34.76543579 8.93084229 34.76834106 9.98840332 C34.76530472 11.69183899 34.76530472 11.69183899 34.76220703 13.4296875 C34.76483551 15.21240051 34.76483551 15.21240051 34.76751709 17.03112793 C34.7711752 20.29964026 34.77030222 23.56811239 34.767138 26.83662415 C34.76461397 30.25013313 34.76695206 33.66363935 34.76852417 37.07714844 C34.77034574 42.81055181 34.76793989 48.54394233 34.76318359 54.27734375 C34.75774099 60.91487026 34.75950366 67.55236605 34.76501 74.18989182 C34.76954149 79.87905516 34.7701915 85.56820924 34.76757133 91.25737381 C34.76600876 94.6595027 34.76581425 98.06161714 34.76910782 101.46374512 C34.77163259 105.25449738 34.76779621 109.04518973 34.76220703 112.8359375 C34.76423126 113.97156128 34.76625549 115.10718506 34.76834106 116.27722168 C34.76552124 117.30367798 34.76270142 118.33013428 34.75979614 119.38769531 C34.7592306 120.73386932 34.7592306 120.73386932 34.75865364 122.10723877 C34.6328125 124.1328125 34.6328125 124.1328125 33.6328125 125.1328125 C20.4328125 125.1328125 7.2328125 125.1328125 -6.3671875 125.1328125 C-6.3671875 151.5328125 -6.3671875 177.9328125 -6.3671875 205.1328125 C6.8328125 205.1328125 20.0328125 205.1328125 33.6328125 205.1328125 C35.76367692 207.26367692 34.89242122 212.02448185 34.94921875 214.98046875 C34.96999985 215.8668956 34.99078094 216.75332245 35.01219177 217.66661072 C35.0777865 220.5094295 35.13661802 223.35234367 35.1953125 226.1953125 C35.2384883 228.11784856 35.28210228 230.04037484 35.32617188 231.96289062 C35.43347793 236.68609918 35.53471701 241.40940403 35.6328125 246.1328125 C36.27605469 246.12757568 36.91929687 246.12233887 37.58203125 246.11694336 C40.5989477 246.09569368 43.61584835 246.08300406 46.6328125 246.0703125 C48.14875 246.05774414 48.14875 246.05774414 49.6953125 246.04492188 C58.42469986 246.01764254 66.86140131 246.5845993 75.6328125 247.1328125 C76.2928125 274.1928125 76.9528125 301.2528125 77.6328125 329.1328125 C90.1728125 329.4628125 102.7128125 329.7928125 115.6328125 330.1328125 C118.64766026 333.14766026 117.98990106 336.59179961 118.046875 340.640625 C118.07592422 341.90155472 118.07592422 341.90155472 118.1055603 343.18795776 C118.16542908 345.87780553 118.21177021 348.56769593 118.2578125 351.2578125 C118.2959856 353.07944594 118.33503694 354.9010612 118.375 356.72265625 C118.47113648 361.19256102 118.55514019 365.66255029 118.6328125 370.1328125 C119.80900146 370.15786865 120.98519043 370.1829248 122.19702148 370.20874023 C126.54495872 370.30264056 130.89272966 370.40290298 135.24047852 370.50512695 C137.12520468 370.54854183 139.00997186 370.59021193 140.89477539 370.63012695 C143.59794499 370.68767143 146.30090686 370.75141054 149.00390625 370.81640625 C149.85182236 370.83311874 150.69973846 370.84983124 151.573349 370.86705017 C157.51894079 371.01894079 157.51894079 371.01894079 158.6328125 372.1328125 C158.72889913 373.77771799 158.75469037 375.42676941 158.75306702 377.07447815 C158.75512901 378.67943649 158.75512901 378.67943649 158.75723267 380.31681824 C158.75363739 381.50076675 158.75004211 382.68471527 158.74633789 383.90454102 C158.74648392 385.1433905 158.74662994 386.38223999 158.7467804 387.65863037 C158.74620142 391.06551083 158.74117209 394.47233134 158.73420644 397.87920117 C158.72797243 401.43598076 158.72736906 404.99276108 158.72618103 408.54954529 C158.72306785 415.28917832 158.71485465 422.02879521 158.70483154 428.76842111 C158.69366998 436.43939648 158.68815985 444.11037261 158.68313611 451.78135407 C158.67267202 467.56518291 158.65507285 483.34899563 158.6328125 499.1328125 C155.30582613 500.79630569 151.56851865 500.37659307 147.90625 500.44921875 C147.04343414 500.46999985 146.18061829 500.49078094 145.29165649 500.51219177 C142.53045757 500.57767284 139.76916212 500.63656548 137.0078125 500.6953125 C135.13801078 500.7384991 133.26821888 500.78211343 131.3984375 500.82617188 C126.80999522 500.93335274 122.22145567 501.03462425 117.6328125 501.1328125 C117.64328613 502.26823486 117.65375977 503.40365723 117.66455078 504.57348633 C117.70073305 508.78341523 117.72370652 512.99333037 117.74267578 517.20336914 C117.75273741 519.02598379 117.7663881 520.84858229 117.78369141 522.67114258 C117.80793271 525.28991685 117.81929388 527.90847781 117.828125 530.52734375 C117.83844757 531.34306351 117.84877014 532.15878326 117.85940552 532.9992218 C117.8601811 536.90412006 117.84931911 538.80805258 115.6328125 542.1328125 C112.73124926 542.47048292 110.0328436 542.62189594 107.125 542.64453125 C106.28438019 542.66248245 105.44376038 542.68043365 104.57766724 542.69892883 C101.88776699 542.75319281 99.19804574 542.78697836 96.5078125 542.8203125 C94.68617291 542.85347145 92.864557 542.88795977 91.04296875 542.92382812 C86.57304555 543.00892822 82.10317691 543.07566206 77.6328125 543.1328125 C77.57746338 544.33929443 77.52211426 545.54577637 77.46508789 546.78881836 C77.25924008 551.24868524 77.04720083 555.70823962 76.83325195 560.16772461 C76.74138121 562.10091273 76.65120857 564.03418231 76.56274414 565.9675293 C76.43557882 568.74030158 76.30238602 571.51272727 76.16796875 574.28515625 C76.11008934 575.58984108 76.11008934 575.58984108 76.05104065 576.92088318 C75.74668421 583.01894079 75.74668421 583.01894079 74.6328125 584.1328125 C71.95441197 584.23286778 69.30172831 584.26721301 66.62280273 584.25979614 C65.77327498 584.26135613 64.92374723 584.26291612 64.04847622 584.26452339 C61.17943566 584.26853708 58.31044728 584.26534232 55.44140625 584.26220703 C53.39364592 584.26356091 51.34588584 584.26534076 49.29812622 584.26751709 C43.71977776 584.27209304 38.14144771 584.2703012 32.56309891 584.267138 C26.73924966 584.26461523 20.91540204 584.26695171 15.09155273 584.26852417 C5.30940466 584.27034611 -4.47273588 584.26793892 -14.25488281 584.26318359 C-25.58212036 584.25774093 -36.90933992 584.25950357 -48.23657703 584.26501 C-57.94269115 584.26954044 -67.64879983 584.27019202 -77.35491467 584.26757133 C-83.1603697 584.26600817 -88.96581626 584.26581584 -94.77127075 584.26910782 C-100.22781344 584.27198553 -105.6843328 584.27001269 -111.14087296 584.26421356 C-113.14969977 584.26288543 -115.15852853 584.26328098 -117.16735458 584.26547623 C-119.8973226 584.26818564 -122.62721463 584.26480918 -125.35717773 584.25979614 C-126.16290002 584.26202686 -126.9686223 584.26425759 -127.79876041 584.26655591 C-133.25303766 584.24696234 -133.25303766 584.24696234 -134.3671875 583.1328125 C-134.45590023 580.10303446 -134.482381 577.09614228 -134.46484375 574.06640625 C-134.4634288 573.15778336 -134.46201385 572.24916046 -134.46055603 571.31300354 C-134.45493943 568.39874029 -134.44238415 565.48455269 -134.4296875 562.5703125 C-134.42467464 560.59961048 -134.42011136 558.62890726 -134.41601562 556.65820312 C-134.40496461 551.81637691 -134.38768888 546.97460755 -134.3671875 542.1328125 C-135.57366943 542.13804932 -136.78015137 542.14328613 -138.02319336 542.14868164 C-142.48282128 542.16672861 -146.94244596 542.17824339 -151.40209961 542.18774414 C-153.33537335 542.19278506 -155.26864326 542.19961769 -157.2019043 542.20825195 C-159.97445622 542.22032815 -162.74695791 542.22604307 -165.51953125 542.23046875 C-166.82421608 542.23821068 -166.82421608 542.23821068 -168.15525818 542.24610901 C-170.22624564 542.24630435 -172.29713074 542.19489418 -174.3671875 542.1328125 C-176.49805192 540.00194808 -175.62679622 535.24114315 -175.68359375 532.28515625 C-175.70437485 531.3987294 -175.72515594 530.51230255 -175.74656677 529.59901428 C-175.8121615 526.7561955 -175.87099302 523.91328133 -175.9296875 521.0703125 C-175.9728633 519.14777644 -176.01647728 517.22525016 -176.06054688 515.30273438 C-176.16785293 510.57952582 -176.26909201 505.85622097 -176.3671875 501.1328125 C-177.57366943 501.10775635 -178.78015137 501.0827002 -180.02319336 501.05688477 C-184.48294411 500.96298727 -188.94253263 500.86272417 -193.40209961 500.76049805 C-195.33532935 500.71708209 -197.26859909 500.67541208 -199.2019043 500.63549805 C-201.97456952 500.57795619 -204.74703207 500.5142163 -207.51953125 500.44921875 C-208.38932114 500.43250626 -209.25911102 500.41579376 -210.15525818 500.39857483 C-216.25331579 500.24668421 -216.25331579 500.24668421 -217.3671875 499.1328125 C-217.46759033 497.50521596 -217.49794798 495.87325671 -217.50090027 494.24256897 C-217.50516525 493.18390121 -217.50943024 492.12523346 -217.51382446 491.03448486 C-217.51314468 489.27730133 -217.51314468 489.27730133 -217.51245117 487.48461914 C-217.51580978 486.25873581 -217.5191684 485.03285248 -217.52262878 483.76982117 C-217.53052467 480.39793396 -217.53380773 477.0261083 -217.53444457 473.65421605 C-217.53539205 470.84344539 -217.53906849 468.0326807 -217.54261667 465.22191232 C-217.55076884 458.59268134 -217.55320021 451.96346394 -217.55249023 445.33422852 C-217.55188926 438.48652573 -217.56244325 431.63890167 -217.5782339 424.79121882 C-217.59129175 418.92029926 -217.59667487 413.04940548 -217.59603482 407.17847151 C-217.59577931 403.66841744 -217.59865948 400.15843329 -217.60921288 396.64839363 C-217.62065501 392.73569766 -217.61615781 388.82311041 -217.61010742 384.91040039 C-217.61572693 383.74096893 -217.62134644 382.57153748 -217.62713623 381.3666687 C-217.62294174 380.30518112 -217.61874725 379.24369354 -217.61442566 378.15003967 C-217.61497043 377.22401475 -217.61551519 376.29798983 -217.61607647 375.34390354 C-217.3671875 373.1328125 -217.3671875 373.1328125 -215.3671875 371.1328125 C-212.42622013 370.95741814 -209.58065401 370.90148875 -206.640625 370.9375 C-205.34640121 370.94174484 -205.34640121 370.94174484 -204.02603149 370.94607544 C-201.2646103 370.95728917 -198.503511 370.98239566 -195.7421875 371.0078125 C-193.87240051 371.01784077 -192.00260845 371.02696688 -190.1328125 371.03515625 C-185.54414641 371.05723238 -180.95572157 371.09177016 -176.3671875 371.1328125 C-176.37242432 370.21209961 -176.37766113 369.29138672 -176.38305664 368.34277344 C-176.47934097 348.4960139 -176.35937322 328.66308851 -175.9296875 308.8203125 C-175.91003937 307.83953735 -175.89039124 306.85876221 -175.87014771 305.8482666 C-175.81343588 303.07186541 -175.74979983 300.29572039 -175.68359375 297.51953125 C-175.65851746 296.26437965 -175.65851746 296.26437965 -175.63293457 294.98387146 C-175.48234095 289.24796595 -175.48234095 289.24796595 -174.3671875 288.1328125 C-171.41013429 288.04412951 -168.47653694 288.01760954 -165.51953125 288.03515625 C-164.18989098 288.03727867 -164.18989098 288.03727867 -162.83338928 288.03944397 C-159.99045496 288.04506035 -157.14759819 288.05761559 -154.3046875 288.0703125 C-152.38216259 288.07532539 -150.45963646 288.07988866 -148.53710938 288.08398438 C-143.81377201 288.09503509 -139.09049292 288.11231067 -134.3671875 288.1328125 C-134.37242432 286.92633057 -134.37766113 285.71984863 -134.38305664 284.47680664 C-134.40110361 280.01717872 -134.41261839 275.55755404 -134.42211914 271.09790039 C-134.42716006 269.16462665 -134.43399269 267.23135674 -134.44262695 265.2980957 C-134.45470315 262.52554378 -134.46041807 259.75304209 -134.46484375 256.98046875 C-134.47258568 255.67578392 -134.47258568 255.67578392 -134.48048401 254.34474182 C-134.48067935 252.27375436 -134.42926918 250.20286926 -134.3671875 248.1328125 C-130.58441649 244.35004149 -117.34500536 246.10241997 -112.01953125 246.09008789 C-109.78124597 246.09295959 -107.54296257 246.098123 -105.3046875 246.10546875 C-104.15291016 246.10744263 -103.00113281 246.1094165 -101.81445312 246.1114502 C-98.99868727 246.1165618 -96.18294286 246.12372877 -93.3671875 246.1328125 C-93.36810929 245.50590075 -93.36903109 244.87898899 -93.36998081 244.23307991 C-93.39204452 228.99404313 -93.4086032 213.75501123 -93.41899967 198.5159626 C-93.42416068 191.14654085 -93.43119967 183.77712976 -93.44262695 176.40771484 C-93.45257974 169.9861465 -93.45904235 163.56458586 -93.46127599 157.14301002 C-93.46258209 153.74138871 -93.46566156 150.33978946 -93.47291756 146.9381752 C-93.48013232 143.14513061 -93.48117825 139.35213234 -93.48071289 135.55908203 C-93.48430817 134.42548248 -93.48790344 133.29188293 -93.49160767 132.12393188 C-93.490233 131.09465576 -93.48885834 130.06537964 -93.48744202 129.00491333 C-93.48836381 128.10708696 -93.4892856 127.2092606 -93.49023533 126.28422737 C-93.3671875 124.1328125 -93.3671875 124.1328125 -92.3671875 122.1328125 C-88.48257703 120.83794234 -84.80834794 121.0095521 -80.76171875 121.03515625 C-79.92251389 121.0365712 -79.08330902 121.03798615 -78.21867371 121.03944397 C-75.53897534 121.04504035 -72.8593606 121.05759215 -70.1796875 121.0703125 C-68.36263142 121.07532797 -66.54557402 121.07989079 -64.72851562 121.08398438 C-60.27470737 121.09500859 -55.82096161 121.11227072 -51.3671875 121.1328125 C-51.37766113 119.93156738 -51.38813477 118.73032227 -51.39892578 117.49267578 C-51.43506037 113.04609138 -51.45806407 108.59952002 -51.47705078 104.15283203 C-51.48712332 102.22637756 -51.50078193 100.29993842 -51.51806641 98.37353516 C-51.54225991 95.60835998 -51.55365786 92.8433865 -51.5625 90.078125 C-51.57282257 89.2134964 -51.58314514 88.3488678 -51.59378052 87.45803833 C-51.59417856 85.34827729 -51.48983993 83.23900532 -51.3671875 81.1328125 C-49.3671875 79.1328125 -49.3671875 79.1328125 -45.56005859 78.90576172 C-43.9202133 78.90607904 -42.28034733 78.91741569 -40.640625 78.9375 C-39.34640121 78.94174484 -39.34640121 78.94174484 -38.02603149 78.94607544 C-35.2646103 78.95728917 -32.503511 78.98239566 -29.7421875 79.0078125 C-27.87240051 79.01784077 -26.00260845 79.02696688 -24.1328125 79.03515625 C-19.54414641 79.05723238 -14.95572157 79.09177016 -10.3671875 79.1328125 C-10.36940811 78.18511993 -10.37162872 77.23742737 -10.37391663 76.26101685 C-10.39416059 67.34365836 -10.40916571 58.42630452 -10.41899967 49.5089283 C-10.4242253 44.92407399 -10.43131717 40.33923819 -10.44262695 35.75439453 C-10.45346717 31.33239433 -10.45946675 26.91041196 -10.46206474 22.48839951 C-10.46391694 20.79865106 -10.46753364 19.10890363 -10.47291756 17.41916275 C-10.48014301 15.05822872 -10.4811778 12.69736903 -10.48071289 10.33642578 C-10.48430817 9.63296021 -10.48790344 8.92949463 -10.49160767 8.20471191 C-10.48123966 3.36091682 -10.48123966 3.36091682 -9.3671875 1.1328125 C-6.25978326 0.02321353 -3.27556052 0.00394171 0 0 Z " fill="#F0620D" transform="translate(619.3671875,340.8671875)"/>
<path d="M0 0 C13.86 0 27.72 0 42 0 C42 28.71 42 57.42 42 87 C55.53 87 69.06 87 83 87 C83 114.39 83 141.78 83 170 C96.86 170 110.72 170 125 170 C125 197.39 125 224.78 125 253 C111.47 253.33 97.94 253.66 84 254 C83.67 268.19 83.34 282.38 83 297 C55.61 297 28.22 297 0 297 C0 282.48 0 267.96 0 253 C-27.06 253 -54.12 253 -82 253 C-82 212.08 -82 171.16 -82 129 C-68.47 129 -54.94 129 -41 129 C-41 101.28 -41 73.56 -41 45 C-27.47 45 -13.94 45 0 45 C0 30.15 0 15.3 0 0 Z " fill="#FD9B1A" transform="translate(569,628)"/>
<path d="M0 0 C13.86 0 27.72 0 42 0 C42 27.72 42 55.44 42 84 C28.14 84 14.28 84 0 84 C0 56.28 0 28.56 0 0 Z " fill="#FAC42E" transform="translate(569,798)"/>
<path d="M0 0 C0.83021667 -0.00191345 1.66043335 -0.0038269 2.51580811 -0.00579834 C4.26054184 -0.0071533 6.0052859 -0.00350524 7.75 0.00488281 C10.42731088 0.01564685 13.10395907 0.0049365 15.78125 -0.0078125 C17.47916815 -0.00649185 19.17708589 -0.00393141 20.875 0 C21.67705872 -0.00404846 22.47911743 -0.00809692 23.30548096 -0.01226807 C28.94191838 0.03566838 28.94191838 0.03566838 31.171875 2.265625 C31.41911316 4.09388733 31.41911316 4.09388733 31.41479492 6.33227539 C31.41940987 7.58851463 31.41940987 7.58851463 31.42411804 8.87013245 C31.41693253 9.77537155 31.40974701 10.68061066 31.40234375 11.61328125 C31.40188553 12.54031357 31.40142731 13.46734589 31.4009552 14.42247009 C31.39793154 16.38362914 31.39004185 18.34478575 31.37768555 20.3059082 C31.35942872 23.31925902 31.35717582 26.33230278 31.35742188 29.34570312 C31.35250685 31.24739851 31.34667859 33.1490918 31.33984375 35.05078125 C31.33873093 35.95804459 31.3376181 36.86530792 31.33647156 37.80006409 C31.28791948 44.14958052 31.28791948 44.14958052 30.171875 45.265625 C28.79577618 45.36357811 27.41473618 45.39360588 26.03515625 45.39501953 C24.71874146 45.39974777 24.71874146 45.39974777 23.37573242 45.40457153 C22.42158447 45.4025473 21.46743652 45.40052307 20.484375 45.3984375 C19.02511597 45.39987259 19.02511597 45.39987259 17.53637695 45.40133667 C15.475097 45.40201858 13.41381492 45.40016353 11.35253906 45.39599609 C8.18549812 45.390648 5.018599 45.39594072 1.8515625 45.40234375 C-0.14583365 45.40168297 -2.14322971 45.40040181 -4.140625 45.3984375 C-5.09477295 45.40046173 -6.0489209 45.40248596 -7.03198242 45.40457153 C-7.90959229 45.40141937 -8.78720215 45.39826721 -9.69140625 45.39501953 C-10.46782471 45.39422394 -11.24424316 45.39342834 -12.04418945 45.39260864 C-13.828125 45.265625 -13.828125 45.265625 -14.828125 44.265625 C-14.91686635 41.16311299 -14.94330955 38.0829438 -14.92578125 34.98046875 C-14.9243663 34.04964981 -14.92295135 33.11883087 -14.92149353 32.1598053 C-14.91587672 29.17421309 -14.9033214 26.18869471 -14.890625 23.203125 C-14.88561216 21.18424587 -14.88104888 19.16536557 -14.87695312 17.14648438 C-14.86590183 12.18616928 -14.84862595 7.22590968 -14.828125 2.265625 C-9.74490218 0.2238199 -5.3829781 -0.02744815 0 0 Z " fill="#FD9E19" transform="translate(779.828125,617.734375)"/>
<path d="M0 0 C14.19 0 28.38 0 43 0 C44.70944724 3.41889448 44.18495736 7.33089603 44.203125 11.09375 C44.20882507 11.9962146 44.21452515 12.8986792 44.22039795 13.82849121 C44.22985106 15.73835068 44.23638317 17.64822649 44.24023438 19.55810547 C44.24996097 22.48824214 44.28098962 25.41768368 44.3125 28.34765625 C44.31902782 30.20051665 44.32427916 32.05338209 44.328125 33.90625 C44.3404718 34.78647827 44.3528186 35.66670654 44.36553955 36.5736084 C44.35644531 39.04101562 44.35644531 39.04101562 44 43 C40.04293471 45.63804353 36.6190457 45.28741295 32.02734375 45.265625 C30.70906334 45.26849518 30.70906334 45.26849518 29.364151 45.27142334 C27.50733148 45.27278385 25.6505024 45.26909675 23.79370117 45.26074219 C20.94493365 45.25002796 18.09679492 45.26064851 15.24804688 45.2734375 C13.4453111 45.27211613 11.64257572 45.26955421 9.83984375 45.265625 C8.98462631 45.26967346 8.12940887 45.27372192 7.24827576 45.27789307 C1.22992618 45.22992618 1.22992618 45.22992618 -1 43 C-1.24291992 40.65600586 -1.24291992 40.65600586 -1.23046875 37.71484375 C-1.22853516 36.62494141 -1.22660156 35.53503906 -1.22460938 34.41210938 C-1.21236328 33.26548828 -1.20011719 32.11886719 -1.1875 30.9375 C-1.18685547 29.84888672 -1.18621094 28.76027344 -1.18554688 27.63867188 C-1.13708823 18.37230212 -0.54608534 9.28345073 0 0 Z " fill="#F2640D" transform="translate(703,512)"/>
<path d="M0 0 C1.11890625 -0.01224609 2.2378125 -0.02449219 3.390625 -0.03710938 C4.99164062 -0.04000977 4.99164062 -0.04000977 6.625 -0.04296875 C7.60726562 -0.04707764 8.58953125 -0.05118652 9.6015625 -0.05541992 C12 0.1875 12 0.1875 14 2.1875 C14.25878906 4.67773438 14.25878906 4.67773438 14.265625 7.78125 C14.26949219 9.44994141 14.26949219 9.44994141 14.2734375 11.15234375 C14.26570312 12.31894531 14.25796875 13.48554687 14.25 14.6875 C14.25773438 15.85410156 14.26546875 17.02070312 14.2734375 18.22265625 C14.27085937 19.33511719 14.26828125 20.44757812 14.265625 21.59375 C14.26336914 22.61791016 14.26111328 23.64207031 14.25878906 24.69726562 C14 27.1875 14 27.1875 12 29.1875 C9.49389648 29.43041992 9.49389648 29.43041992 6.37109375 29.41796875 C5.25412109 29.41603516 4.13714844 29.41410156 2.98632812 29.41210938 C1.2296582 29.39374023 1.2296582 29.39374023 -0.5625 29.375 C-1.73748047 29.37435547 -2.91246094 29.37371094 -4.12304688 29.37304688 C-12.85987859 29.32762141 -12.85987859 29.32762141 -14 28.1875 C-14.08758003 26.18785018 -14.10696576 24.1851389 -14.09765625 22.18359375 C-14.09443359 20.96865234 -14.09121094 19.75371094 -14.08789062 18.50195312 C-14.07951172 17.22255859 -14.07113281 15.94316406 -14.0625 14.625 C-14.05798828 13.34173828 -14.05347656 12.05847656 -14.04882812 10.73632812 C-14.03699545 7.55333978 -14.02051068 4.37044238 -14 1.1875 C-9.88137709 -0.87181145 -4.52640955 0.00260738 0 0 Z " fill="#FC9F1A" transform="translate(841,564.8125)"/>
<path d="M0 0 C13.86 0 27.72 0 42 0 C42 0.33 42 0.66 42 1 C28.47 1 14.94 1 1 1 C1 41.92 1 82.84 1 125 C28.06 125 55.12 125 83 125 C83 125.33 83 125.66 83 126 C56.27 126 29.54 126 2 126 C2.33 139.2 2.66 152.4 3 166 C29.4 166 55.8 166 83 166 C83 166.99 83 167.98 83 169 C72.19541915 169.02312312 61.39084414 169.04091493 50.58624363 169.05181217 C45.5697753 169.05704107 40.55332385 169.06413883 35.53686523 169.07543945 C30.69990306 169.0862681 25.86295716 169.09227679 21.02598381 169.09487724 C19.17631715 169.09673153 17.32665143 169.10035222 15.47699165 169.10573006 C12.89552986 169.1129402 10.31413618 169.11399095 7.73266602 169.11352539 C6.96014999 169.11712067 6.18763397 169.12071594 5.39170837 169.12442017 C0.11405216 169.11405216 0.11405216 169.11405216 -1 168 C-1.08871273 164.97022196 -1.1151935 161.96332978 -1.09765625 158.93359375 C-1.0962413 158.02497086 -1.09482635 157.11634796 -1.09336853 156.18019104 C-1.08775193 153.26592779 -1.07519665 150.35174019 -1.0625 147.4375 C-1.05748714 145.46679798 -1.05292386 143.49609476 -1.04882812 141.52539062 C-1.03862617 136.68354086 -1.01905409 131.84185553 -1 127 C-14.2 127 -27.4 127 -41 127 C-42.28567725 123.14296826 -41.89611065 119.67621549 -41.625 115.6875 C-41.58117187 114.94048828 -41.53734375 114.19347656 -41.4921875 113.42382812 C-41.22675391 109.22481621 -40.77706857 105.14217057 -40 101 C-39.67 101 -39.34 101 -39 101 C-39 108.59 -39 116.18 -39 124 C-26.13 124 -13.26 124 0 124 C0 83.08 0 42.16 0 0 Z " fill="#F9750E" transform="translate(486,756)"/>
<path d="M0 0 C4.31248609 -0.02886537 8.62494762 -0.04675255 12.9375 -0.0625 C14.78504883 -0.07506836 14.78504883 -0.07506836 16.66992188 -0.08789062 C17.83974609 -0.09111328 19.00957031 -0.09433594 20.21484375 -0.09765625 C21.84087524 -0.10551147 21.84087524 -0.10551147 23.49975586 -0.11352539 C26 0 26 0 27 1 C27.25301239 5.13962283 27.18522549 9.29105996 27.1875 13.4375 C27.19974609 14.60861328 27.21199219 15.77972656 27.22460938 16.98632812 C27.22750977 18.66178711 27.22750977 18.66178711 27.23046875 20.37109375 C27.23457764 21.40161865 27.23868652 22.43214355 27.24291992 23.49389648 C27 26 27 26 25 28 C22.6015625 28.24291992 22.6015625 28.24291992 19.625 28.23046875 C18.55765625 28.22853516 17.4903125 28.22660156 16.390625 28.22460938 C15.27171875 28.21236328 14.1528125 28.20011719 13 28.1875 C11.32164062 28.1865332 11.32164062 28.1865332 9.609375 28.18554688 C1.28056319 28.14028159 1.28056319 28.14028159 -1 27 C-1.22677207 23.43842366 -1.42815479 19.87584575 -1.625 16.3125 C-1.68945312 15.30509766 -1.75390625 14.29769531 -1.8203125 13.25976562 C-1.871875 12.28330078 -1.9234375 11.30683594 -1.9765625 10.30078125 C-2.02893066 9.40528564 -2.08129883 8.50979004 -2.13525391 7.5871582 C-1.98391432 4.69231059 -1.20867188 2.61741403 0 0 Z " fill="#F2620D" transform="translate(660,277)"/>
<path d="M0 0 C1.1653125 -0.00128906 2.330625 -0.00257813 3.53125 -0.00390625 C4.7584375 -0.00003906 5.985625 0.00382812 7.25 0.0078125 C9.09078125 0.00201172 9.09078125 0.00201172 10.96875 -0.00390625 C12.71671875 -0.00197266 12.71671875 -0.00197266 14.5 0 C15.57765625 0.00112793 16.6553125 0.00225586 17.765625 0.00341797 C20.25 0.1328125 20.25 0.1328125 21.25 1.1328125 C21.34962237 2.96266872 21.38080452 4.79634128 21.3828125 6.62890625 C21.38410156 7.74458984 21.38539063 8.86027344 21.38671875 10.00976562 C21.38285156 11.18474609 21.37898437 12.35972656 21.375 13.5703125 C21.38080078 15.32698242 21.38080078 15.32698242 21.38671875 17.11914062 C21.38542969 18.23611328 21.38414062 19.35308594 21.3828125 20.50390625 C21.38168457 21.53443115 21.38055664 22.56495605 21.37939453 23.62670898 C21.25 26.1328125 21.25 26.1328125 20.25 28.1328125 C15.93751391 28.16167787 11.62505238 28.17956505 7.3125 28.1953125 C6.08080078 28.20369141 4.84910156 28.21207031 3.58007812 28.22070312 C2.41025391 28.22392578 1.24042969 28.22714844 0.03515625 28.23046875 C-1.59087524 28.23832397 -1.59087524 28.23832397 -3.24975586 28.24633789 C-5.75 28.1328125 -5.75 28.1328125 -6.75 27.1328125 C-6.84971786 25.21822968 -6.88080589 23.29998933 -6.8828125 21.3828125 C-6.88410156 20.2175 -6.88539063 19.0521875 -6.88671875 17.8515625 C-6.88285156 16.624375 -6.87898437 15.3971875 -6.875 14.1328125 C-6.87886719 12.905625 -6.88273438 11.6784375 -6.88671875 10.4140625 C-6.88542969 9.24875 -6.88414062 8.0834375 -6.8828125 6.8828125 C-6.88168457 5.80515625 -6.88055664 4.7275 -6.87939453 3.6171875 C-6.6362729 -1.05074778 -4.09391107 0.00428489 0 0 Z " fill="#FC9A1B" transform="translate(705.75,431.8671875)"/>
<path d="M0 0 C0.33 0 0.66 0 1 0 C1 13.2 1 26.4 1 40 C1.66 40 2.32 40 3 40 C2.67 40.99 2.34 41.98 2 43 C-10.54 43.33 -23.08 43.66 -36 44 C-36.13277344 46.87589844 -36.26554688 49.75179687 -36.40234375 52.71484375 C-36.5336137 55.48825564 -36.66650703 58.26158528 -36.79956055 61.03491211 C-36.89143129 62.96810023 -36.98160393 64.90136981 -37.07006836 66.8347168 C-37.19723368 69.60748908 -37.33042648 72.37991477 -37.46484375 75.15234375 C-37.52272316 76.45702858 -37.52272316 76.45702858 -37.58177185 77.78807068 C-37.88612829 83.88612829 -37.88612829 83.88612829 -39 85 C-42.10251201 85.08874135 -45.1826812 85.11518455 -48.28515625 85.09765625 C-49.21597519 85.0962413 -50.14679413 85.09482635 -51.1058197 85.09336853 C-54.09141191 85.08775172 -57.07693029 85.0751964 -60.0625 85.0625 C-62.08137913 85.05748716 -64.10025943 85.05292388 -66.11914062 85.04882812 C-71.07945572 85.03777683 -76.03971532 85.02050095 -81 85 C-81.02464513 78.8944529 -81.04283371 72.78893449 -81.05493164 66.68334961 C-81.05997288 64.60456844 -81.06680574 62.52579084 -81.07543945 60.44702148 C-81.08751422 57.46597414 -81.09323024 54.48497351 -81.09765625 51.50390625 C-81.10539818 50.10078941 -81.10539818 50.10078941 -81.11329651 48.66932678 C-81.11337204 47.80850998 -81.11344757 46.94769318 -81.11352539 46.06079102 C-81.115746 45.29912125 -81.11796661 44.53745148 -81.12025452 43.75270081 C-81 42 -81 42 -80 41 C-77.427704 40.83790642 -74.88006491 40.73965694 -72.3046875 40.68359375 C-71.09891808 40.65235413 -71.09891808 40.65235413 -69.86878967 40.6204834 C-67.20429647 40.55379207 -64.53970193 40.49520903 -61.875 40.4375 C-60.9696048 40.41632111 -60.06420959 40.39514221 -59.13137817 40.37332153 C-39.41721687 39.91500399 -19.71964314 39.92723379 0 40 C0 26.8 0 13.6 0 0 Z M-80 42 C-80 55.2 -80 68.4 -80 82 C-67.13 82 -54.26 82 -41 82 C-41 68.8 -41 55.6 -41 42 C-53.87 42 -66.74 42 -80 42 Z " fill="#FD780D" transform="translate(733,840)"/>
<path d="M0 0 C0.78503906 0.00773437 1.57007813 0.01546875 2.37890625 0.0234375 C3.55646484 0.01183594 3.55646484 0.01183594 4.7578125 0 C10.62559838 0.02012963 10.62559838 0.02012963 12.87890625 2.2734375 C13.12182617 4.13696289 13.12182617 4.13696289 13.109375 6.37109375 C13.10744141 7.17224609 13.10550781 7.97339844 13.10351562 8.79882812 C13.08514648 10.05469727 13.08514648 10.05469727 13.06640625 11.3359375 C13.06576172 12.17705078 13.06511719 13.01816406 13.06445312 13.88476562 C13.01913809 20.13320566 13.01913809 20.13320566 11.87890625 21.2734375 C10.4754189 21.37203881 9.06710148 21.40422687 7.66015625 21.40625 C6.38591797 21.40818359 6.38591797 21.40818359 5.0859375 21.41015625 C3.74595703 21.40435547 3.74595703 21.40435547 2.37890625 21.3984375 C1.48558594 21.40230469 0.59226562 21.40617187 -0.328125 21.41015625 C-1.17761719 21.40886719 -2.02710938 21.40757812 -2.90234375 21.40625 C-3.68673828 21.40512207 -4.47113281 21.40399414 -5.27929688 21.40283203 C-7.12109375 21.2734375 -7.12109375 21.2734375 -8.12109375 20.2734375 C-8.24777139 17.28325589 -8.30630213 14.32649642 -8.30859375 11.3359375 C-8.32083984 10.49869141 -8.33308594 9.66144531 -8.34570312 8.79882812 C-8.34763672 7.99767578 -8.34957031 7.19652344 -8.3515625 6.37109375 C-8.35567139 5.63383057 -8.35978027 4.89656738 -8.36401367 4.13696289 C-7.73843937 -0.66204076 -3.94688038 0.0135399 0 0 Z " fill="#FB8E16" transform="translate(812.12109375,450.7265625)"/>
<path d="M0 0 C13.53 0 27.06 0 41 0 C41 40.26 41 80.52 41 122 C41.66 122 42.32 122 43 122 C43 122.99 43 123.98 43 125 C39.74739953 126.62630024 36.17074171 126.14172565 32.59765625 126.1328125 C31.76415146 126.13376923 30.93064667 126.13472595 30.07188416 126.13571167 C28.30744349 126.13639275 26.54300032 126.13454348 24.77856445 126.13037109 C22.07692834 126.12502853 19.375459 126.13031503 16.67382812 126.13671875 C14.96093713 126.13605782 13.24804624 126.13477636 11.53515625 126.1328125 C10.7257106 126.13483673 9.91626495 126.13686096 9.08229065 126.13894653 C5.79883694 126.12522172 3.13690963 126.04563654 0 125 C0 124.34 0 123.68 0 123 C12.87 123 25.74 123 39 123 C39 82.74 39 42.48 39 1 C26.13 1 13.26 1 0 1 C0 0.67 0 0.34 0 0 Z " fill="#FC6A10" transform="translate(735,715)"/>
<path d="M0 0 C2.95064148 -0.2208564 5.68368231 -0.28060989 8.625 -0.1875 C9.42679688 -0.17396484 10.22859375 -0.16042969 11.0546875 -0.14648438 C13.03674378 -0.11109051 15.01845551 -0.05728234 17 0 C18.47899501 2.95799003 18.13178874 5.6483576 18.125 8.9375 C18.12886719 10.80728516 18.12886719 10.80728516 18.1328125 12.71484375 C18 16 18 16 17 19 C11.06 19 5.12 19 -1 19 C-2.47793555 16.04412889 -2.17053651 13.35002355 -2.1875 10.0625 C-2.20167969 8.81597656 -2.21585938 7.56945312 -2.23046875 6.28515625 C-2 3 -2 3 0 0 Z " fill="#ED5E0E" transform="translate(754,371)"/>
<path d="M0 0 C11.22 0 22.44 0 34 0 C34 40.26 34 80.52 34 122 C-4 122 -4 122 -7 121 C-7 146.74 -7 172.48 -7 199 C-7.33 199 -7.66 199 -8 199 C-8.02312376 188.71695462 -8.04091525 178.43391538 -8.05181217 168.15084934 C-8.05704093 163.3765172 -8.06413844 158.60220279 -8.07543945 153.82788086 C-8.0862686 149.22433738 -8.09227689 144.62081101 -8.09487724 140.01725578 C-8.09673144 138.25690377 -8.10035196 136.49655274 -8.10573006 134.73620796 C-8.11294086 132.27927723 -8.11399093 129.82241805 -8.11352539 127.36547852 C-8.11712067 126.63036545 -8.12071594 125.89525238 -8.12442017 125.13786316 C-8.11405216 120.11405216 -8.11405216 120.11405216 -7 119 C6.2 119 19.4 119 33 119 C33 80.06 33 41.12 33 1 C22.11 1 11.22 1 0 1 C0 0.67 0 0.34 0 0 Z " fill="#FE720F" transform="translate(618,344)"/>
<path d="M0 0 C0.85902924 -0.00095673 1.71805847 -0.00191345 2.6031189 -0.00289917 C4.41705397 -0.0035793 6.23099149 -0.00173668 8.04492188 0.00244141 C10.83208629 0.00780509 13.61909051 0.00248406 16.40625 -0.00390625 C18.16666702 -0.0032457 19.92708395 -0.001965 21.6875 0 C22.52600494 -0.00202423 23.36450989 -0.00404846 24.22842407 -0.00613403 C30.09597833 0.01785333 30.09597833 0.01785333 31.2109375 1.1328125 C31.37123438 4.08810754 31.47051078 7.02263707 31.52734375 9.98046875 C31.54812485 10.8668956 31.56890594 11.75332245 31.59031677 12.66661072 C31.6559115 15.5094295 31.71474302 18.35234367 31.7734375 21.1953125 C31.8166133 23.11784856 31.86022728 25.04037484 31.90429688 26.96289062 C32.01160293 31.68609918 32.11284201 36.40940403 32.2109375 41.1328125 C32.8594165 41.12757568 33.50789551 41.12233887 34.17602539 41.11694336 C46.56587001 41.03028575 58.86301049 41.0246652 71.2109375 42.1328125 C71.2109375 42.7928125 71.2109375 43.4528125 71.2109375 44.1328125 C57.3509375 44.1328125 43.4909375 44.1328125 29.2109375 44.1328125 C28.8809375 30.6028125 28.5509375 17.0728125 28.2109375 3.1328125 C15.0109375 3.1328125 1.8109375 3.1328125 -11.7890625 3.1328125 C-11.7890625 2.4728125 -11.7890625 1.8128125 -11.7890625 1.1328125 C-7.8548093 -0.17860523 -4.10043657 -0.00994687 0 0 Z " fill="#DB530C" transform="translate(622.7890625,545.8671875)"/>
<path d="M0 0 C27.39 0 54.78 0 83 0 C83 0.99 83 1.98 83 3 C55.61 3 28.22 3 0 3 C0 2.01 0 1.02 0 0 Z " fill="#FFB61D" transform="translate(569,922)"/>
<path d="M0 0 C1.77206192 0.00015919 3.54412846 0.00585754 5.31616211 0.01586914 C6.24698105 0.01728409 7.17779999 0.01869904 8.13682556 0.02015686 C11.12241777 0.02577367 14.10793615 0.03832899 17.09350586 0.05102539 C19.11238499 0.05603823 21.13126529 0.06060151 23.15014648 0.06469727 C28.11046158 0.07574856 33.07072118 0.09302444 38.03100586 0.11352539 C38.03100586 0.77352539 38.03100586 1.43352539 38.03100586 2.11352539 C24.50100586 2.11352539 10.97100586 2.11352539 -2.96899414 2.11352539 C-2.96899414 15.64352539 -2.96899414 29.17352539 -2.96899414 43.11352539 C-16.82899414 43.11352539 -30.68899414 43.11352539 -44.96899414 43.11352539 C-44.96899414 42.45352539 -44.96899414 41.79352539 -44.96899414 41.11352539 C-31.76899414 41.11352539 -18.56899414 41.11352539 -4.96899414 41.11352539 C-5.00859876 27.9944864 -5.00859876 27.9944864 -5.05908203 14.87548828 C-5.06200115 13.23738673 -5.06454972 11.59928445 -5.06665039 9.96118164 C-5.07176636 9.10262573 -5.07688232 8.24406982 -5.08215332 7.35949707 C-5.08246324 5.27716487 -5.0314159 3.1949218 -4.96899414 1.11352539 C-3.96899414 0.11352539 -3.96899414 0.11352539 0 0 Z " fill="#D7560C" transform="translate(489.968994140625,587.886474609375)"/>
<path d="M0 0 C0.33 0 0.66 0 1 0 C1 13.2 1 26.4 1 40 C1.66 40 2.32 40 3 40 C2.67 40.99 2.34 41.98 2 43 C-25.34925266 43.15555665 -52.66068788 42.73039515 -80 42 C-80 41.67 -80 41.34 -80 41 C-53.32069892 40.22122372 -26.69247636 39.90150378 0 40 C0 26.8 0 13.6 0 0 Z " fill="#FC7E0E" transform="translate(733,840)"/>
<path d="M0 0 C14.19 0 28.38 0 43 0 C43 0.33 43 0.66 43 1 C29.8 1 16.6 1 3 1 C3 14.53 3 28.06 3 42 C2.67 41.34 2.34 40.68 2 40 C-11.2 40 -24.4 40 -38 40 C-38 39.67 -38 39.34 -38 39 C-25.46 39 -12.92 39 0 39 C0 26.13 0 13.26 0 0 Z " fill="#FD5E07" transform="translate(568,423)"/>
<path d="M0 0 C2.88493931 -0.29159149 5.55187937 -0.39590537 8.4375 -0.36328125 C9.27337646 -0.36377975 10.10925293 -0.36427826 10.97045898 -0.36479187 C12.73911921 -0.36244959 14.50778266 -0.35271197 16.27636719 -0.33618164 C18.98923432 -0.31259361 21.70111895 -0.31561867 24.4140625 -0.32226562 C26.13021421 -0.31668889 27.84636178 -0.30957904 29.5625 -0.30078125 C30.37710693 -0.30169266 31.19171387 -0.30260406 32.03100586 -0.30354309 C37.76897842 -0.23102158 37.76897842 -0.23102158 40 2 C40.10467436 5.01741801 40.08868812 7.93419412 39.9765625 10.9453125 C39.93902359 12.27283035 39.93902359 12.27283035 39.90072632 13.62716675 C39.81840545 16.46016056 39.72186323 19.29246968 39.625 22.125 C39.56677276 24.04294058 39.50946923 25.96090943 39.453125 27.87890625 C39.31280872 32.5863329 39.15973467 37.29319386 39 42 C38.67 42 38.34 42 38 42 C38 29.13 38 16.26 38 3 C24.8 3 11.6 3 -2 3 C-1.34 2.01 -0.68 1.02 0 0 Z " fill="#EC9513" transform="translate(771,618)"/>
<path d="M0 0 C2.475 0.99 2.475 0.99 5 2 C4.01 2.495 4.01 2.495 3 3 C3 29.73 3 56.46 3 84 C2.67 84 2.34 84 2 84 C0.87541844 67.20302898 0.6905028 50.39095376 0.46777344 33.56384277 C0.41673721 29.76843505 0.36148843 25.9730886 0.30664062 22.17773438 C0.20040662 14.78520872 0.09868669 7.39263068 0 0 Z " fill="#FE680C" transform="translate(444,630)"/>
<path d="M0 0 C0.66 0 1.32 0 2 0 C2 4.62 2 9.24 2 14 C5.96 14 9.92 14 14 14 C14 9.38 14 4.76 14 0 C15.32 0 16.64 0 18 0 C18.02699725 2.27076842 18.04639453 4.54162821 18.0625 6.8125 C18.07410156 8.07707031 18.08570313 9.34164063 18.09765625 10.64453125 C18 14 18 14 17 17 C11.06 17 5.12 17 -1 17 C-0.67 11.39 -0.34 5.78 0 0 Z " fill="#F86609" transform="translate(754,373)"/>
<path d="M0 0 C5.96313166 -0.02464574 11.92623395 -0.042834 17.8894043 -0.05493164 C19.91968298 -0.05997278 21.94995802 -0.06680557 23.98022461 -0.07543945 C26.89177347 -0.08751467 29.8032745 -0.09323034 32.71484375 -0.09765625 C33.6283812 -0.10281754 34.54191864 -0.10797882 35.48313904 -0.11329651 C37.65575427 -0.11349168 39.82827296 -0.06211805 42 0 C43 1 43 1 43.0625 3.5625 C43.041875 4.366875 43.02125 5.17125 43 6 C42.34 6.33 41.68 6.66 41 7 C41 5.68 41 4.36 41 3 C27.47 3 13.94 3 0 3 C0 2.01 0 1.02 0 0 Z " fill="#D05205" transform="translate(735,712)"/>
<path d="M0 0 C0.66 1.32 1.32 2.64 2 4 C21.305 4.495 21.305 4.495 41 5 C41.495 5.99 41.495 5.99 42 7 C38.61606992 8.69196504 34.77522209 8.11986549 31.0546875 8.09765625 C30.1696756 8.0962413 29.2846637 8.09482635 28.37283325 8.09336853 C25.54018809 8.0877614 22.70762136 8.07520771 19.875 8.0625 C17.95703239 8.05748592 16.03906354 8.05292285 14.12109375 8.04882812 C9.41403218 8.03778966 4.7070294 8.02052025 0 8 C-1.43088528 5.13822943 -0.59991697 3.06624227 0 0 Z " fill="#FF6F07" transform="translate(704,549)"/>
<path d="M0 0 C14.19 0 28.38 0 43 0 C43 0.99 43 1.98 43 3 C37.34000977 3.02467467 31.68005068 3.04284788 26.02001953 3.05493164 C24.09358169 3.05996787 22.16714769 3.06679712 20.24072266 3.07543945 C17.47557632 3.08753608 14.71048042 3.09323533 11.9453125 3.09765625 C10.6483696 3.10539818 10.6483696 3.10539818 9.32522583 3.11329651 C3.22774341 3.11387171 3.22774341 3.11387171 1 2 C0.67 2.66 0.34 3.32 0 4 C0 2.68 0 1.36 0 0 Z " fill="#D8550D" transform="translate(703,512)"/>
<path d="M0 0 C5.80239614 -0.04934656 11.60467081 -0.08569402 17.40722656 -0.10986328 C19.38218309 -0.11993627 21.35712466 -0.13359521 23.33203125 -0.15087891 C26.16670418 -0.17507039 29.00118038 -0.18646991 31.8359375 -0.1953125 C32.72243988 -0.20563507 33.60894226 -0.21595764 34.52230835 -0.22659302 C36.68285952 -0.2269907 38.84293718 -0.12272534 41 0 C41.66 0.66 42.32 1.32 43 2 C39.74739953 3.62630024 36.17074171 3.14172565 32.59765625 3.1328125 C31.76415146 3.13376923 30.93064667 3.13472595 30.07188416 3.13571167 C28.30744349 3.13639275 26.54300032 3.13454348 24.77856445 3.13037109 C22.07692834 3.12502853 19.375459 3.13031503 16.67382812 3.13671875 C14.96093713 3.13605782 13.24804624 3.13477636 11.53515625 3.1328125 C10.7257106 3.13483673 9.91626495 3.13686096 9.08229065 3.13894653 C5.79883694 3.12522172 3.13690963 3.04563654 0 2 C0 1.34 0 0.68 0 0 Z " fill="#FF740A" transform="translate(735,838)"/>
<path d="M0 0 C1.35726196 0.00616333 1.35726196 0.00616333 2.74194336 0.01245117 C3.72356445 0.01438477 4.70518555 0.01631836 5.71655273 0.01831055 C6.74458008 0.03055664 7.77260742 0.04280273 8.83178711 0.05541992 C9.86368164 0.05606445 10.89557617 0.05670898 11.95874023 0.05737305 C19.62912714 0.10275995 19.62912714 0.10275995 20.76928711 1.24291992 C20.85666356 3.09661603 20.87626864 4.95359533 20.86694336 6.80932617 C20.8637207 7.9340332 20.86049805 9.05874023 20.85717773 10.2175293 C20.84879883 11.4015332 20.84041992 12.58553711 20.83178711 13.80541992 C20.82727539 14.99329102 20.82276367 16.18116211 20.81811523 17.4050293 C20.80628386 20.35104218 20.78979998 23.29695673 20.76928711 26.24291992 C20.10928711 26.57291992 19.44928711 26.90291992 18.76928711 27.24291992 C17.49067096 24.68568763 17.65592102 22.8755489 17.67163086 20.01635742 C17.67485352 18.98510742 17.67807617 17.95385742 17.68139648 16.89135742 C17.68977539 15.81112305 17.6981543 14.73088867 17.70678711 13.61791992 C17.71129883 12.52995117 17.71581055 11.44198242 17.72045898 10.32104492 C17.73226921 7.6283133 17.75020505 4.93560983 17.76928711 2.24291992 C10.50928711 2.24291992 3.24928711 2.24291992 -4.23071289 2.24291992 C-2.23071289 0.24291992 -2.23071289 0.24291992 0 0 Z " fill="#F99216" transform="translate(706.230712890625,431.757080078125)"/>
<path d="M0 0 C1.32 0 2.64 0 4 0 C3.8590853 4.41683763 3.71134841 8.83342318 3.5625 13.25 C3.50352539 15.10238281 3.50352539 15.10238281 3.44335938 16.9921875 C3.18010029 24.68745314 2.72411828 32.33411959 2 40 C1.34 40 0.68 40 0 40 C0 26.8 0 13.6 0 0 Z " fill="#EC5B0D" transform="translate(693,882)"/>
<path d="M0 0 C26.9576474 -0.20638953 26.9576474 -0.20638953 39 1 C39 1.66 39 2.32 39 3 C25.8 3 12.6 3 -1 3 C-0.67 2.01 -0.34 1.02 0 0 Z " fill="#D53D0B" transform="translate(614,341)"/>
<path d="M0 0 C0.95535645 -0.00451172 1.91071289 -0.00902344 2.89501953 -0.01367188 C3.80622559 -0.01173828 4.71743164 -0.00980469 5.65625 -0.0078125 C6.46900391 -0.00668457 7.28175781 -0.00555664 8.11914062 -0.00439453 C10.65766201 0.13356859 13.02182865 0.57044032 15.5 1.125 C15.5 1.785 15.5 2.445 15.5 3.125 C2.3 3.125 -10.9 3.125 -24.5 3.125 C-24.5 2.465 -24.5 1.805 -24.5 1.125 C-16.32539191 0.26126782 -8.21453554 0.016253 0 0 Z " fill="#BE4B06" transform="translate(429.5,711.875)"/>
<path d="M0 0 C0.33 0 0.66 0 1 0 C1 9.57 1 19.14 1 29 C-0.98 29.99 -0.98 29.99 -3 31 C-3.08725659 26.7709638 -3.1404789 22.54215988 -3.1875 18.3125 C-3.21263672 17.11431641 -3.23777344 15.91613281 -3.26367188 14.68164062 C-3.27333984 13.52470703 -3.28300781 12.36777344 -3.29296875 11.17578125 C-3.3086792 10.11270752 -3.32438965 9.04963379 -3.34057617 7.9543457 C-2.95376374 4.5989212 -1.97898113 2.70924863 0 0 Z " fill="#FC5309" transform="translate(705,524)"/>
<path d="M0 0 C0.66 0.33 1.32 0.66 2 1 C2 8.26 2 15.52 2 23 C7.28 23 12.56 23 18 23 C18.33 23.99 18.66 24.98 19 26 C16.04160645 26.02689449 13.08345573 26.04678741 10.125 26.0625 C9.28324219 26.07087891 8.44148437 26.07925781 7.57421875 26.08789062 C6.76855469 26.09111328 5.96289062 26.09433594 5.1328125 26.09765625 C4.01737061 26.10551147 4.01737061 26.10551147 2.87939453 26.11352539 C1 26 1 26 -1 25 C-0.67 16.75 -0.34 8.5 0 0 Z " fill="#FE690D" transform="translate(660,279)"/>
<path d="M0 0 C14.19 0 28.38 0 43 0 C43 0.33 43 0.66 43 1 C29.8 1 16.6 1 3 1 C3 14.53 3 28.06 3 42 C2.67 42 2.34 42 2 42 C1.97494385 41.00556885 1.9498877 40.0111377 1.92407227 38.98657227 C1.83015118 35.30951253 1.72989381 31.6326485 1.62768555 27.95581055 C1.58427854 26.362107 1.54260781 24.7683552 1.50268555 23.17456055 C1.44512193 20.88836092 1.38138851 18.60240551 1.31640625 16.31640625 C1.29969376 15.59973282 1.28298126 14.88305939 1.26576233 14.14466858 C1.44981346 10.78472618 1.44981346 10.78472618 0 8 C0 5.36 0 2.72 0 0 Z " fill="#FC6C0D" transform="translate(568,423)"/>
<path d="M0 0 C8.25 0 16.5 0 25 0 C24.67 0.99 24.34 1.98 24 3 C20.37501666 3.02893932 16.75006287 3.04677792 13.125 3.0625 C11.57619141 3.07506836 11.57619141 3.07506836 9.99609375 3.08789062 C9.00996094 3.09111328 8.02382813 3.09433594 7.0078125 3.09765625 C5.64100342 3.10551147 5.64100342 3.10551147 4.24658203 3.11352539 C2 3 2 3 0 2 C0 9.59 0 17.18 0 25 C-0.33 25 -0.66 25 -1 25 C-1.22702385 21.77186442 -1.42828723 18.54261311 -1.625 15.3125 C-1.68945312 14.40048828 -1.75390625 13.48847656 -1.8203125 12.54882812 C-1.871875 11.66259766 -1.9234375 10.77636719 -1.9765625 9.86328125 C-2.02893066 9.05157471 -2.08129883 8.23986816 -2.13525391 7.40356445 C-2 5 -2 5 0 0 Z " fill="#E45B0A" transform="translate(660,277)"/>
<path d="M0 0 C0.33 0 0.66 0 1 0 C1.02505615 0.68102783 1.0501123 1.36205566 1.07592773 2.0637207 C1.19190952 5.14683755 1.31462616 8.22965046 1.4375 11.3125 C1.47681641 12.38435547 1.51613281 13.45621094 1.55664062 14.56054688 C1.59853516 15.58857422 1.64042969 16.61660156 1.68359375 17.67578125 C1.72025146 18.62364502 1.75690918 19.57150879 1.79467773 20.5480957 C1.91430187 23.136171 1.91430187 23.136171 3 26 C-5.58 26 -14.16 26 -23 26 C-23.33 25.01 -23.66 24.02 -24 23 C-20.93744039 22.9729509 -17.8751214 22.95313702 -14.8125 22.9375 C-13.94818359 22.92912109 -13.08386719 22.92074219 -12.19335938 22.91210938 C-11.35224609 22.90888672 -10.51113281 22.90566406 -9.64453125 22.90234375 C-8.87471924 22.89710693 -8.10490723 22.89187012 -7.31176758 22.88647461 C-5 23 -5 23 0 24 C0 16.08 0 8.16 0 0 Z " fill="#FEA91C" transform="translate(723,434)"/>
<path d="M0 0 C3.12824279 -0.19501281 6.04529678 -0.20564503 9.1640625 -0.07421875 C10.52487442 -0.03455742 10.52487442 -0.03455742 11.91317749 0.00590515 C14.81777438 0.09384891 17.72114601 0.20293418 20.625 0.3125 C22.59110158 0.37574002 24.55724786 0.43760669 26.5234375 0.49804688 C31.34962171 0.64941878 36.17481122 0.81975777 41 1 C41 1.66 41 2.32 41 3 C26.81 3 12.62 3 -2 3 C-1.34 2.01 -0.68 1.02 0 0 Z " fill="#D9560B" transform="translate(570,420)"/>
<path d="M0 0 C1.35726196 0.00616333 1.35726196 0.00616333 2.74194336 0.01245117 C3.72356445 0.01438477 4.70518555 0.01631836 5.71655273 0.01831055 C6.74458008 0.03055664 7.77260742 0.04280273 8.83178711 0.05541992 C9.86368164 0.05606445 10.89557617 0.05670898 11.95874023 0.05737305 C19.62912714 0.10275995 19.62912714 0.10275995 20.76928711 1.24291992 C20.85666356 3.09661603 20.87626864 4.95359533 20.86694336 6.80932617 C20.8637207 7.9340332 20.86049805 9.05874023 20.85717773 10.2175293 C20.84879883 11.4015332 20.84041992 12.58553711 20.83178711 13.80541992 C20.82727539 14.99329102 20.82276367 16.18116211 20.81811523 17.4050293 C20.80628386 20.35104218 20.78979998 23.29695673 20.76928711 26.24291992 C20.10928711 25.91291992 19.44928711 25.58291992 18.76928711 25.24291992 C18.76928711 17.65291992 18.76928711 10.06291992 18.76928711 2.24291992 C11.17928711 2.24291992 3.58928711 2.24291992 -4.23071289 2.24291992 C-2.23071289 0.24291992 -2.23071289 0.24291992 0 0 Z " fill="#E18A1A" transform="translate(834.230712890625,565.757080078125)"/>
<path d="M0 0 C0.99 0.33 1.98 0.66 3 1 C2.67 14.53 2.34 28.06 2 42 C1.34 42 0.68 42 0 42 C0 28.14 0 14.28 0 0 Z " fill="#F76712" transform="translate(733,673)"/>
<path d="M0 0 C0.33 0 0.66 0 1 0 C1 13.2 1 26.4 1 40 C1.66 40 2.32 40 3 40 C2.67 40.99 2.34 41.98 2 43 C0.54176788 43.0270043 -0.91660675 43.04639787 -2.375 43.0625 C-3.59316406 43.07990234 -3.59316406 43.07990234 -4.8359375 43.09765625 C-7 43 -7 43 -9 42 C-9 41.34 -9 40.68 -9 40 C-6.03 40 -3.06 40 0 40 C0 26.8 0 13.6 0 0 Z " fill="#FE6C0D" transform="translate(733,840)"/>
<path d="M0 0 C0.66 0 1.32 0 2 0 C2 4.95 2 9.9 2 15 C6.95 15 11.9 15 17 15 C17 15.66 17 16.32 17 17 C11.06 17 5.12 17 -1 17 C-0.67 11.39 -0.34 5.78 0 0 Z " fill="#FE6E0D" transform="translate(754,373)"/>
<path d="M0 0 C1.07636719 0.00322266 2.15273438 0.00644531 3.26171875 0.00976562 C4.38964844 0.01814453 5.51757812 0.02652344 6.6796875 0.03515625 C7.81535156 0.03966797 8.95101562 0.04417969 10.12109375 0.04882812 C12.93234388 0.0606401 15.7434898 0.07711118 18.5546875 0.09765625 C18.5546875 0.42765625 18.5546875 0.75765625 18.5546875 1.09765625 C17.61616943 1.13524048 17.61616943 1.13524048 16.65869141 1.17358398 C13.83214131 1.28940898 11.00593581 1.4121961 8.1796875 1.53515625 C6.70242188 1.59413086 6.70242188 1.59413086 5.1953125 1.65429688 C3.78378906 1.71713867 3.78378906 1.71713867 2.34375 1.78125 C1.47443848 1.81790771 0.60512695 1.85456543 -0.29052734 1.89233398 C-2.4936387 1.97167169 -2.4936387 1.97167169 -4.4453125 3.09765625 C-4.4453125 7.38765625 -4.4453125 11.67765625 -4.4453125 16.09765625 C-7.59884583 11.89294515 -7.80777969 11.24673768 -7.6328125 6.34765625 C-7.60574219 5.3628125 -7.57867188 4.37796875 -7.55078125 3.36328125 C-7.51597656 2.615625 -7.48117187 1.86796875 -7.4453125 1.09765625 C-4.83580014 -0.20709993 -2.91829965 -0.01535947 0 0 Z " fill="#FC990D" transform="translate(834.4453125,564.90234375)"/>
<path d="M0 0 C2.0625 0.4375 2.0625 0.4375 4 1 C3.01 1.33 2.02 1.66 1 2 C1 15.2 1 28.4 1 42 C0.67 42 0.34 42 0 42 C-0.16721165 36.17944212 -0.32781152 30.35875454 -0.48217773 24.5378418 C-0.53567894 22.55602051 -0.5910143 20.57424788 -0.64819336 18.5925293 C-0.72987855 15.75059507 -0.80505172 12.90855338 -0.87890625 10.06640625 C-0.90594131 9.17474258 -0.93297638 8.28307892 -0.96083069 7.36439514 C-1.01275915 5.24352554 -1.01188911 3.12147191 -1 1 C-0.67 0.67 -0.34 0.34 0 0 Z " fill="#F69A12" transform="translate(766,619)"/>
<path d="M0 0 C0.33 0 0.66 0 1 0 C1.33 10.89 1.66 21.78 2 33 C0.68 33 -0.64 33 -2 33 C-2.02689216 31.52093108 -2.04634621 30.04172517 -2.0625 28.5625 C-2.07410156 27.73878906 -2.08570313 26.91507813 -2.09765625 26.06640625 C-2 24 -2 24 -1 23 C-0.84259395 21.29436222 -0.74906608 19.58272756 -0.68359375 17.87109375 C-0.64169922 16.83662109 -0.59980469 15.80214844 -0.55664062 14.73632812 C-0.51732422 13.64771484 -0.47800781 12.55910156 -0.4375 11.4375 C-0.37272461 9.7987793 -0.37272461 9.7987793 -0.30664062 8.12695312 C-0.20017932 5.41810436 -0.09816484 2.70916008 0 0 Z " fill="#F42E05" transform="translate(695,638)"/>
<path d="M0 0 C0.91120605 0.01047363 1.82241211 0.02094727 2.76123047 0.03173828 C3.74736328 0.03818359 4.73349609 0.04462891 5.74951172 0.05126953 C7.29832031 0.07640625 7.29832031 0.07640625 8.87841797 0.10205078 C9.91869141 0.11107422 10.95896484 0.12009766 12.03076172 0.12939453 C14.60520889 0.15301331 17.17920009 0.18594929 19.75341797 0.22705078 C19.42341797 1.87705078 19.09341797 3.52705078 18.75341797 5.22705078 C18.42341797 4.23705078 18.09341797 3.24705078 17.75341797 2.22705078 C10.49341797 2.22705078 3.23341797 2.22705078 -4.24658203 2.22705078 C-2.24658203 0.22705078 -2.24658203 0.22705078 0 0 Z " fill="#D47C13" transform="translate(706.24658203125,431.77294921875)"/>
<path d="M0 0 C6.93 0 13.86 0 21 0 C20.67 0.66 20.34 1.32 20 2 C10.595 2.495 10.595 2.495 1 3 C0.67 2.01 0.34 1.02 0 0 Z " fill="#FFC21B" transform="translate(827,591)"/>
<path d="M0 0 C1.39456452 0.00667256 2.78911118 0.01863093 4.18359375 0.03515625 C4.89451172 0.03966797 5.60542969 0.04417969 6.33789062 0.04882812 C8.09899388 0.06064761 9.86005411 0.07858362 11.62109375 0.09765625 C11.95109375 1.08765625 12.28109375 2.07765625 12.62109375 3.09765625 C10.16246974 3.15149473 7.70501825 3.19124663 5.24609375 3.22265625 C4.19808594 3.24779297 4.19808594 3.24779297 3.12890625 3.2734375 C1.29211889 3.29109892 -0.54492588 3.20068886 -2.37890625 3.09765625 C-3.03890625 2.43765625 -3.69890625 1.77765625 -4.37890625 1.09765625 C-3.37890625 0.09765625 -3.37890625 0.09765625 0 0 Z " fill="#FF7808" transform="translate(666.37890625,301.90234375)"/>
<path d="M0 0 C1.09570312 0.00902344 2.19140625 0.01804687 3.3203125 0.02734375 C4.16335938 0.03894531 5.00640625 0.05054688 5.875 0.0625 C5.875 0.7225 5.875 1.3825 5.875 2.0625 C3.39724905 3.30137548 1.63846293 3.22991669 -1.125 3.25 C-2.4553125 3.27126953 -2.4553125 3.27126953 -3.8125 3.29296875 C-6.125 3.0625 -6.125 3.0625 -8.125 1.0625 C-5.36047967 -0.31976016 -3.0788637 -0.03275387 0 0 Z " fill="#D2740D" transform="translate(817.125,450.9375)"/>
<path d="M0 0 C1.4540625 0.0309375 1.4540625 0.0309375 2.9375 0.0625 C2.6075 1.0525 2.2775 2.0425 1.9375 3.0625 C-4.9925 3.0625 -11.9225 3.0625 -19.0625 3.0625 C-19.0625 2.7325 -19.0625 2.4025 -19.0625 2.0625 C-17.99128906 2.00191406 -16.92007813 1.94132813 -15.81640625 1.87890625 C-14.41925609 1.79451463 -13.02212143 1.70986594 -11.625 1.625 C-10.56442383 1.56602539 -10.56442383 1.56602539 -9.48242188 1.50585938 C-5.93804439 1.2853957 -3.33259263 0.06801209 0 0 Z " fill="#FFA30B" transform="translate(851.0625,590.9375)"/>
<path d="M0 0 C2.42578125 -0.328125 2.42578125 -0.328125 5.3125 -0.25 C6.25738281 -0.23453125 7.20226562 -0.2190625 8.17578125 -0.203125 C10.86302743 -0.00985142 13.37485142 0.40707027 16 1 C16 1.33 16 1.66 16 2 C10.06 2.33 4.12 2.66 -2 3 C-1.34 2.01 -0.68 1.02 0 0 Z " fill="#F43F04" transform="translate(570,420)"/>
<path d="M0 0 C3.63 0.33 7.26 0.66 11 1 C10.67 1.66 10.34 2.32 10 3 C6.7 3 3.4 3 0 3 C0 2.01 0 1.02 0 0 Z " fill="#B8490B" transform="translate(735,712)"/>
<path d="M0 0 C2.0625 0.4375 2.0625 0.4375 4 1 C3.01 1.495 3.01 1.495 2 2 C1.53045739 5.04581269 1.53045739 5.04581269 1.375 8.5625 C1.30023437 9.76003906 1.22546875 10.95757812 1.1484375 12.19140625 C1.09945312 13.11824219 1.05046875 14.04507812 1 15 C0.67 15 0.34 15 0 15 C-0.19390729 12.68802845 -0.37996367 10.3753971 -0.5625 8.0625 C-0.71912109 6.13083984 -0.71912109 6.13083984 -0.87890625 4.16015625 C-0.91886719 3.11730469 -0.95882812 2.07445312 -1 1 C-0.67 0.67 -0.34 0.34 0 0 Z " fill="#F79618" transform="translate(700,432)"/>
<path d="" fill="#FF0000" transform="translate(0,0)"/>
<path d="" fill="#FFAA00" transform="translate(0,0)"/>
<path d="" fill="#FF8000" transform="translate(0,0)"/>
<path d="" fill="#FF8000" transform="translate(0,0)"/>
</svg>
